<svg width="16" height="17" viewBox="0 0 16 17" fill="none" xmlns="http://www.w3.org/2000/svg">
<path d="M14.9996 11.5025V13.6142C15.0004 13.8103 14.9602 14.0043 14.8817 14.184C14.8031 14.3636 14.6879 14.5248 14.5435 14.6574C14.399 14.7899 14.2285 14.8908 14.0428 14.9536C13.8571 15.0164 13.6603 15.0397 13.465 15.0221C11.299 14.7867 9.2183 14.0466 7.39023 12.8611C5.68945 11.7803 4.24748 10.3383 3.16674 8.63756C1.9771 6.80119 1.23677 4.71041 1.00571 2.53461C0.988123 2.33995 1.01126 2.14376 1.07364 1.95854C1.13603 1.77331 1.2363 1.60311 1.36807 1.45875C1.49984 1.3144 1.66022 1.19907 1.839 1.1201C2.01779 1.04113 2.21106 1.00025 2.40651 1.00007H4.51826C4.85987 0.996706 5.19105 1.11768 5.45007 1.34043C5.70909 1.56319 5.87828 1.87253 5.92609 2.2108C6.01522 2.88661 6.18052 3.55016 6.41883 4.18881C6.51354 4.44076 6.53403 4.71457 6.47789 4.97781C6.42175 5.24105 6.29132 5.48268 6.10207 5.67407L5.20809 6.56804C6.21016 8.33033 7.6693 9.78948 9.43159 10.7915L10.3256 9.89757C10.517 9.70831 10.7586 9.57788 11.0218 9.52174C11.2851 9.4656 11.5589 9.4861 11.8108 9.58081C12.4495 9.81912 13.113 9.98442 13.7888 10.0735C14.1308 10.1218 14.4431 10.294 14.6663 10.5575C14.8895 10.821 15.0081 11.1573 14.9996 11.5025Z" stroke="#0055D6" stroke-width="2" stroke-linecap="round" stroke-linejoin="round"/>
</svg>
